<svg xmlns="http://www.w3.org/2000/svg" xmlns:xlink="http://www.w3.org/1999/xlink" viewBox="0 0 486.98 494.79"><defs><style>.cls-1{fill:#f49a5d;}.cls-1,.cls-2{stroke:#f49a5d;}.cls-1,.cls-10,.cls-12,.cls-14,.cls-2,.cls-3,.cls-5{stroke-miterlimit:10;}.cls-1,.cls-14,.cls-2,.cls-3,.cls-5,.cls-8,.cls-9{stroke-width:6.27px;}.cls-13,.cls-2{fill:#f2bf9c;}.cls-3{fill:#ffd3b6;stroke:#ffd3b6;}.cls-4,.cls-7{fill:#ef7c2e;}.cls-5{fill:#ffdacc;stroke:#ffdacc;}.cls-10,.cls-12,.cls-14,.cls-6,.cls-8,.cls-9{fill:none;stroke-linecap:round;}.cls-14,.cls-6{stroke:#f9c29d;}.cls-6,.cls-8,.cls-9{stroke-linejoin:round;}.cls-6{stroke-width:9.41px;}.cls-11,.cls-15,.cls-7{opacity:0.5;}.cls-8{stroke:#ffdcc5;}.cls-9{stroke:#ef7c2e;}.cls-10{stroke:#f2bf9c;stroke-width:6.9px;}.cls-12{stroke:#fff;stroke-width:8.04px;}.cls-15{fill:url(#radial-gradient);}.cls-16{fill:#fff;}</style><radialGradient id="radial-gradient" cx="326.22" cy="160.77" r="160.77" gradientUnits="userSpaceOnUse"><stop offset="0" stop-color="#f49a5d"/><stop offset="1" stop-color="#f49a5d" stop-opacity="0"/></radialGradient></defs><g id="asteroid"><path class="cls-1" d="M659.14,521c3.43,8.21.63,56.17-.07,74.72-1.14,30.16-16.27,51.4-24.45,60.91-5.12,6-21.36,24.91-47.52,31.07a124.28,124.28,0,0,1-44.87,1.53c-4.88-.75-9.32-1.78-16.27-1.76-13.58,0-15.78,4.95-29.82,6.55a75.46,75.46,0,0,1-27.79-2.2,81.91,81.91,0,0,1-18-7.08C428.9,673.48,412,658,397.13,645.34c-28.19-24-25.91-18.22-40.1-32-10-9.7-26.61-26.07-39.77-51.25-5.35-10.25-21.4-41.91-19.83-84.56,1.28-34.71,13.59-59.36,27.62-87.44,16.41-32.83,31.87-51.94,36.6-57.38a239.81,239.81,0,0,1,30.74-29.37c4.67-3.66,23.52-16,26.53-18C501.36,371.83,576.69,434.48,659.14,521Z" transform="translate(-294.19 -202.81)"/><path class="cls-2" d="M376.56,369.73a208.73,208.73,0,0,0-21.25,40.53,191.53,191.53,0,0,0-12.05,47c-1.58,13.82-4.57,43,8.81,72.76,5.41,12,11.38,19.42,18,27.63,4.9,6.06,22.59,27.11,54.79,44.33,16,8.56,31.38,16.78,54.34,18.17,24.71,1.5,40.69-6,44.12-7.65a89.4,89.4,0,0,0,35-30.64" transform="translate(-294.19 -202.81)"/><path class="cls-3" d="M591.59,338.44c-21-14.45-24.65-8.33-56.7-28.14-16-9.92-22.41-15.95-39.87-23.64-12.32-5.42-22.8-9.91-37.31-10.33a81.22,81.22,0,0,0-38.79,9c-26.64,13.17-38.46,36.34-42.59,44.7-11.69,23.64-11,44.82-10.49,61.34.52,16,2.3,55,30.24,91.9a150,150,0,0,0,53.21,43.63,190.25,190.25,0,0,0,40.31,49.05c13.24,11.48,27.6,23.93,50.12,30.4,8.22,2.36,43.1,12.37,76.29-6.64,30-17.2,39.68-47.26,44.93-63.61,10.91-33.94,5.22-62.86,1.38-82.35a196.91,196.91,0,0,0-24.51-63.91C630.14,377.27,616.66,355.69,591.59,338.44Z" transform="translate(-294.19 -202.81)"/><ellipse class="cls-4" cx="558.75" cy="656.71" rx="20.33" ry="12.82" transform="translate(-381.39 -117.26) rotate(-8.12)"/><path class="cls-5" d="M660.94,536.09c10.59-33,5.53-61.21,1.72-80.65-13-6.51-22.94-6.95-45.13-19.62-15.26-8.71-15.57-11.36-27-16.45-9.74-4.32-29.73-13.19-50.5-7.22-14,4-22.17,13-31.16,23-26.73,29.54-30.7,64.61-31.5,75.66-.6,8.52-1.57,24.16,4.54,43a102.8,102.8,0,0,0,14.19,27.78c11.57,9.75,24.73,19.41,43.65,24.84,8.22,2.36,43.1,12.37,76.29-6.64C646,582.5,655.69,552.44,660.94,536.09Z" transform="translate(-294.19 -202.81)"/><ellipse class="cls-4" cx="438.87" cy="643.56" rx="17.28" ry="21.18" transform="translate(-633.05 484.35) rotate(-58.92)"/><path class="cls-6" d="M440.92,630.45a19.56,19.56,0,0,1,5.26,2.2c7.64,4.61,10.78,13.4,7,19.63a11.25,11.25,0,0,1-5,4.43" transform="translate(-294.19 -202.81)"/><circle class="cls-4" cx="33.7" cy="352.32" r="6.94"/><ellipse class="cls-7" cx="523.5" cy="509.39" rx="20.35" ry="22.67" transform="translate(-385.15 -88.34) rotate(-11.49)"/><circle class="cls-7" cx="325.99" cy="317.33" r="10.4"/><ellipse class="cls-7" cx="642.33" cy="481.95" rx="5.57" ry="7.43" transform="translate(-377.3 -65.23) rotate(-11.49)"/><ellipse class="cls-7" cx="572.54" cy="559.19" rx="21.55" ry="23.78" transform="translate(-512.53 478.82) rotate(-53.12)"/><path class="cls-8" d="M567.85,580.58a25.8,25.8,0,0,1-8.24-4.15,24.81,24.81,0,0,1-10-17.18" transform="translate(-294.19 -202.81)"/><path class="cls-9" d="M576.9,537.71a25.71,25.71,0,0,1,8.57,4.24c10.51,7.88,13.24,22,6.09,31.51-5.69,7.59-15.94,10-25.18,6.64" transform="translate(-294.19 -202.81)"/><circle class="cls-7" cx="219.69" cy="356.79" r="10.31"/><path class="cls-10" d="M530.9,603.36c2.8,1.09,5.73,2.09,8.82,3,8.22,2.36,43.1,12.37,76.29-6.64,25.44-14.58,36.26-38.41,42.17-55.29" transform="translate(-294.19 -202.81)"/><circle class="cls-7" cx="137.39" cy="215.35" r="21.19"/><circle class="cls-7" cx="206.08" cy="181.97" r="15.05"/><circle class="cls-7" cx="187.13" cy="216.81" r="9.48"/><g class="cls-11"><ellipse class="cls-4" cx="596.18" cy="382.62" rx="16.59" ry="23.89" transform="translate(-381.42 366.26) rotate(-47.95)"/><path class="cls-4" d="M611.71,375.13c6.12,8.18,7.29,17.85,2.21,23.49-2.9,3.21-7.3,4.53-12.18,4.11" transform="translate(-294.19 -202.81)"/></g><ellipse class="cls-7" cx="447.81" cy="333.36" rx="22.91" ry="23.11" transform="translate(-212.04 552.4) rotate(-85.75)"/><path class="cls-12" d="M469.35,341.71a23.19,23.19,0,0,1-43.22-.42" transform="translate(-294.19 -202.81)"/><polygon class="cls-13" points="242.64 399.03 169.33 374.41 237.37 404.52 242.64 399.03"/><ellipse class="cls-4" cx="337.48" cy="508.28" rx="17.28" ry="21.19" transform="translate(-425.39 -85.14) rotate(-16.61)"/><path class="cls-14" d="M324.64,492.34a14.69,14.69,0,0,1,6.78-4.37c9.15-2.73,19.27,4.15,22.62,15.37s-1.36,22.52-10.5,25.25A15.51,15.51,0,0,1,331.4,527" transform="translate(-294.19 -202.81)"/><circle class="cls-7" cx="118.28" cy="329.66" r="11.49"/><ellipse class="cls-7" cx="439.15" cy="581.22" rx="11.49" ry="14.37" transform="translate(-583.5 380.93) rotate(-53.12)"/></g><g id="glow"><circle class="cls-15" cx="326.22" cy="160.77" r="160.77"/></g><g id="star"><polygon class="cls-16" points="325.99 157.74 347.44 139.33 329.03 160.77 347.44 182.21 325.99 163.8 304.55 182.21 322.96 160.77 304.55 139.33 325.99 157.74"/><polygon class="cls-16" points="329.53 157.23 375.99 160.77 329.53 164.3 325.99 210.77 322.46 164.3 275.99 160.77 322.46 157.23 325.99 110.77 329.53 157.23"/></g></svg>