<svg xmlns="http://www.w3.org/2000/svg" xmlns:xlink="http://www.w3.org/1999/xlink" viewBox="0 0 974.83 722.67"><defs><style>.cls-1,.cls-10,.cls-13,.cls-18,.cls-19,.cls-21,.cls-3,.cls-7,.cls-9{fill:none;}.cls-2,.cls-20{fill:#8436ff;}.cls-2,.cls-3{stroke:#6e24fc;}.cls-10,.cls-13,.cls-19,.cls-2,.cls-21,.cls-3,.cls-7,.cls-9{stroke-linecap:round;}.cls-13,.cls-2,.cls-3,.cls-7{stroke-linejoin:round;}.cls-13,.cls-2,.cls-3,.cls-7,.cls-9{stroke-width:4px;}.cls-4{fill:#fff;opacity:0.25;}.cls-5{fill:#a7a1f9;}.cls-6{fill:#e0e2ff;}.cls-19,.cls-7{stroke:#8436ff;}.cls-8{clip-path:url(#clip-path);}.cls-9{stroke:#a7a1f9;}.cls-10,.cls-18,.cls-19,.cls-21,.cls-9{stroke-miterlimit:10;}.cls-10{stroke:#fff;stroke-width:2px;}.cls-11{fill:#a4a1ff;}.cls-12{fill:#c8c4ff;}.cls-13{stroke:#6d10ff;}.cls-14{fill:#eedcff;}.cls-15{fill:#d7a6ff;}.cls-16{fill:#6d10ff;}.cls-17{fill:#cabfd8;}.cls-18,.cls-21{stroke:#d9a5ff;}.cls-18,.cls-19,.cls-21{stroke-width:5px;}</style><clipPath id="clip-path" transform="translate(-9.98 -72.53)"><path class="cls-1" d="M570.78,282.81c-43.37-43.36-98-59.08-121.93-35.11L277.05,419.5l157,157,171.8-171.8C629.86,380.77,614.14,326.18,570.78,282.81Z"/></clipPath></defs><g id="wing_L"><g id="wing"><polyline class="cls-2" points="112.26 167.89 496.02 251.92 504.63 281.34 389.9 391.53 12.44 308.88 2 273.22 112.26 167.89 496.02 251.92"/><line class="cls-3" x1="474.3" y1="250.63" x2="339.05" y2="379.83"/><line class="cls-3" x1="432.72" y1="240.22" x2="296.55" y2="370.31"/><line class="cls-3" x1="383.23" y1="230.38" x2="249.22" y2="358.4"/><line class="cls-3" x1="335.03" y1="222.09" x2="201.01" y2="350.11"/><line class="cls-3" x1="289.69" y1="211.29" x2="155.68" y2="339.32"/><line class="cls-3" x1="246.11" y1="201.64" x2="112.09" y2="329.67"/><line class="cls-3" x1="199.87" y1="189.92" x2="65.86" y2="317.94"/><line class="cls-3" x1="153.47" y1="178.13" x2="19.46" y2="306.16"/><line class="cls-3" x1="499.58" y1="283.86" x2="86.2" y2="193.34"/><line class="cls-3" x1="471.79" y1="311.96" x2="57.32" y2="221.21"/><line class="cls-3" x1="445.11" y1="338.2" x2="29.74" y2="247.24"/><line class="cls-3" x1="416.31" y1="364.63" x2="2.22" y2="273.96"/><path class="cls-4" d="M329.36,313.92l-.65,104.74a9.85,9.85,0,0,1-11.95,9.56L256.16,415a9.84,9.84,0,0,1-7.74-9.68l.65-104.74A9.84,9.84,0,0,1,261,291l60.6,13.26A9.85,9.85,0,0,1,329.36,313.92Z" transform="translate(-9.98 -72.53)"/><path class="cls-4" d="M210.8,288l-.65,104.74a9.85,9.85,0,0,1-12,9.56L188,400a9.85,9.85,0,0,1-7.74-9.68l.65-104.74a9.85,9.85,0,0,1,12-9.56l10.23,2.24A9.84,9.84,0,0,1,210.8,288Z" transform="translate(-9.98 -72.53)"/></g></g><g id="body"><path class="cls-5" d="M585.57,268c-43.36-43.37-98-59.09-121.92-35.12L277.05,419.5l157,157,186.6-186.6C644.66,366,628.94,311.38,585.57,268Z" transform="translate(-9.98 -72.53)"/><path class="cls-6" d="M570.78,282.81c-43.37-43.36-98-59.08-121.93-35.11L277.05,419.5l157,157,171.8-171.8C629.86,380.77,614.14,326.18,570.78,282.81Z" transform="translate(-9.98 -72.53)"/><path class="cls-7" d="M556.27,305.48c37.18,37.18,54,82.61,43,109.93" transform="translate(-9.98 -72.53)"/><path class="cls-5" d="M277.05,419.5c-12.12,12.17-15.72,88.43-15.72,88.43L335,594.61s86.19-5.17,99.09-18.07S289.17,407.32,277.05,419.5Z" transform="translate(-9.98 -72.53)"/><g class="cls-8"><path class="cls-7" d="M454.22,405.38c37.18,37.18,54,82.61,43,109.92" transform="translate(-9.98 -72.53)"/></g><g class="cls-8"><path class="cls-9" d="M320.94,379.8c27.33-11,72.69,5.89,109.82,43s54.05,82.62,43,109.93" transform="translate(-9.98 -72.53)"/></g><g class="cls-8"><path class="cls-10" d="M363.54,330.27c27.32-11,72.69,5.89,109.82,43,1.38,1.38,2.72,2.76,4,4.16" transform="translate(-9.98 -72.53)"/></g><g class="cls-8"><path class="cls-10" d="M417,278.56c27.33-11,72.69,5.9,109.82,43,1.38,1.38,2.72,2.76,4,4.16" transform="translate(-9.98 -72.53)"/></g><path class="cls-5" d="M434.09,576.54c24-24,8.25-78.56-35.11-121.93s-98-59.09-121.93-35.11" transform="translate(-9.98 -72.53)"/></g><g id="head"><circle class="cls-11" cx="229.54" cy="535.78" r="121.94"/><path class="cls-12" d="M180.51,642.35l-52.45,15.36A121.93,121.93,0,1,0,280.93,493.64,121.75,121.75,0,0,0,180.51,642.35Z" transform="translate(-9.98 -72.53)"/><path class="cls-13" d="M148.81,532.13a137.69,137.69,0,0,1,47.47,4.9,139.39,139.39,0,0,1,58.59,34.05" transform="translate(-9.98 -72.53)"/><path class="cls-13" d="M274.7,513.73a76.9,76.9,0,0,0-23.58,6.91A77.8,77.8,0,0,0,222,545.06" transform="translate(-9.98 -72.53)"/><path class="cls-13" d="M170.29,587.75c3.15-7.28,6.81-15,11.09-23,5-9.42,10.18-17.93,15.21-25.53" transform="translate(-9.98 -72.53)"/><path class="cls-13" d="M220.4,624.93a127.31,127.31,0,0,0-25.67-24.57c-5.72-4.11-11.8-8.52-20.72-12.08a79.56,79.56,0,0,0-33.36-5.46" transform="translate(-9.98 -72.53)"/><ellipse class="cls-14" cx="126.27" cy="644.4" rx="57.94" ry="69.68" transform="translate(-186.02 -11.06) rotate(-16.32)"/><rect class="cls-14" x="114.48" y="576.41" width="12.03" height="139.36" transform="translate(-186.72 -12.62) rotate(-16.32)"/><ellipse class="cls-15" cx="114.73" cy="647.78" rx="57.94" ry="69.68" transform="translate(-187.43 -14.17) rotate(-16.32)"/><ellipse class="cls-16" cx="117.91" cy="646.85" rx="9.95" ry="13.38" transform="translate(-187.04 -13.31) rotate(-16.32)"/><rect class="cls-16" x="100.54" y="635.97" width="17.73" height="26.75" transform="translate(-188.08 -15.6) rotate(-16.32)"/><ellipse class="cls-14" cx="100.89" cy="651.83" rx="9.95" ry="13.38" transform="translate(-189.13 -17.89) rotate(-16.32)"/><ellipse class="cls-14" cx="285.24" cy="739.21" rx="45.97" ry="55.31" transform="translate(-515.11 722.44) rotate(-72.94)"/><rect class="cls-14" x="279.06" y="688.46" width="9.54" height="110.62" transform="translate(-520.47 724.32) rotate(-72.94)"/><ellipse class="cls-15" cx="282.43" cy="748.33" rx="45.97" ry="55.31" transform="matrix(0.29, -0.96, 0.96, 0.29, -525.82, 726.21)"/><ellipse class="cls-16" cx="284.2" cy="742.58" rx="7.15" ry="9.61" transform="translate(-519.06 723.83) rotate(-72.94)"/><rect class="cls-16" x="275.97" y="739.06" width="12.73" height="19.21" transform="translate(-526.2 726.34) rotate(-72.94)"/><ellipse class="cls-14" cx="280.47" cy="754.75" rx="7.15" ry="9.61" transform="translate(-533.34 728.86) rotate(-72.94)"/><ellipse class="cls-14" cx="186.56" cy="731.75" rx="30.64" ry="34.39" transform="translate(-553.46 466.05) rotate(-60.88)"/><rect class="cls-14" x="181.83" y="700.14" width="6.36" height="68.77" transform="translate(-556.68 466.12) rotate(-60.88)"/><ellipse class="cls-15" cx="183.46" cy="737.31" rx="30.64" ry="34.39" transform="translate(-559.9 466.2) rotate(-60.88)"/><ellipse class="cls-16" cx="183.92" cy="737.16" rx="4.04" ry="5.43" transform="translate(-559.53 466.52) rotate(-60.88)"/><rect class="cls-16" x="178.57" y="734.87" width="7.2" height="10.87" transform="translate(-563.18 466.61) rotate(-60.88)"/><ellipse class="cls-14" cx="180.42" cy="743.45" rx="4.04" ry="5.43" transform="translate(-566.83 466.69) rotate(-60.88)"/><ellipse class="cls-14" cx="363.25" cy="641.13" rx="47.28" ry="45.61" transform="translate(-378.1 658.57) rotate(-67.48)"/><rect class="cls-17" x="319.27" y="638.93" width="94.57" height="7.14" transform="translate(1090.47 477.48) rotate(112.52)"/><ellipse class="cls-15" cx="369.85" cy="643.87" rx="47.28" ry="45.61" transform="translate(-376.56 666.35) rotate(-67.48)"/><ellipse class="cls-16" cx="369.74" cy="643.82" rx="7.8" ry="5.81" transform="translate(-376.59 666.22) rotate(-67.48)"/><rect class="cls-16" x="369.34" y="638" width="10.34" height="15.6" transform="translate(463.12 1313.27) rotate(-157.48)"/><ellipse class="cls-14" cx="379.29" cy="647.78" rx="7.8" ry="5.81" transform="translate(-374.35 677.49) rotate(-67.48)"/></g><g id="wing_R"><g id="wing-2" data-name="wing"><polyline class="cls-2" points="580.46 260.89 964.22 344.92 972.83 374.34 858.1 484.53 480.64 401.87 470.2 366.22 580.46 260.89 964.22 344.92"/><line class="cls-3" x1="942.5" y1="343.62" x2="807.25" y2="472.82"/><line class="cls-3" x1="900.92" y1="333.21" x2="764.75" y2="463.3"/><line class="cls-3" x1="851.43" y1="323.37" x2="717.42" y2="451.4"/><line class="cls-3" x1="803.23" y1="315.08" x2="669.21" y2="443.11"/><line class="cls-3" x1="757.89" y1="304.29" x2="623.88" y2="432.31"/><line class="cls-3" x1="714.3" y1="294.64" x2="580.29" y2="422.66"/><line class="cls-3" x1="668.07" y1="282.91" x2="534.06" y2="410.93"/><line class="cls-3" x1="621.67" y1="271.13" x2="487.66" y2="399.15"/><line class="cls-3" x1="967.78" y1="376.85" x2="554.4" y2="286.34"/><line class="cls-3" x1="939.99" y1="404.96" x2="525.52" y2="314.2"/><line class="cls-3" x1="913.31" y1="431.19" x2="497.94" y2="340.24"/><line class="cls-3" x1="884.51" y1="457.63" x2="470.42" y2="366.96"/><path class="cls-4" d="M797.56,406.92l-.65,104.74A9.84,9.84,0,0,1,785,521.21L724.36,508a9.86,9.86,0,0,1-7.74-9.68l.65-104.74a9.85,9.85,0,0,1,12-9.56l60.6,13.27A9.84,9.84,0,0,1,797.56,406.92Z" transform="translate(-9.98 -72.53)"/><path class="cls-4" d="M679,381l-.65,104.74a9.84,9.84,0,0,1-12,9.55L656.16,493a9.84,9.84,0,0,1-7.74-9.68l.65-104.74A9.85,9.85,0,0,1,661,369l10.23,2.24A9.83,9.83,0,0,1,679,381Z" transform="translate(-9.98 -72.53)"/></g></g><g id="antennas"><line class="cls-18" x1="476.97" y1="169.36" x2="462.71" y2="112.19"/><path class="cls-19" d="M473.57,244.16a41.57,41.57,0,0,1,31.09,4.11" transform="translate(-9.98 -72.53)"/><circle class="cls-20" cx="462.71" cy="112.19" r="14.24"/><line class="cls-21" x1="464.72" y1="109.25" x2="487.01" y2="85.1"/><line class="cls-21" x1="549.18" y1="203.79" x2="588.23" y2="156.38"/><ellipse class="cls-20" cx="557.08" cy="274.24" rx="10.23" ry="13.15" transform="translate(22.62 534.08) rotate(-58.57)"/><circle class="cls-20" cx="589.38" cy="157.53" r="14.24"/><line class="cls-21" x1="596.59" y1="158.58" x2="630.69" y2="174.19"/><ellipse class="cls-14" cx="511.5" cy="132.08" rx="44.79" ry="71.3" transform="translate(46.44 327.84) rotate(-45)"/><ellipse class="cls-14" cx="665.47" cy="253.46" rx="50.55" ry="31.83" transform="translate(156.4 688.88) rotate(-66.35)"/><ellipse class="cls-15" cx="517.33" cy="126.26" rx="36.56" ry="70.08" transform="translate(52.26 330.25) rotate(-45)"/><ellipse class="cls-15" cx="668.3" cy="254.7" rx="50.3" ry="28.74" transform="translate(156.96 692.21) rotate(-66.35)"/><ellipse class="cls-16" cx="516.56" cy="127.03" rx="7.15" ry="9.61" transform="translate(51.49 329.94) rotate(-45)"/><rect class="cls-16" x="514.69" y="112.92" width="12.73" height="19.21" transform="translate(966.16 -231.82) rotate(135)"/><ellipse class="cls-14" cx="525.56" cy="118.02" rx="7.15" ry="9.61" transform="translate(60.5 333.66) rotate(-45)"/><ellipse class="cls-16" cx="667.92" cy="254.54" rx="6.89" ry="5.13" transform="translate(156.89 691.77) rotate(-66.36)"/><rect class="cls-16" x="667.54" y="249.48" width="9.13" height="13.77" transform="translate(1174.98 688.25) rotate(-156.36)"/><ellipse class="cls-14" cx="676.29" cy="258.2" rx="6.89" ry="5.13" transform="translate(158.54 701.62) rotate(-66.36)"/></g></svg>