<svg xmlns="http://www.w3.org/2000/svg" xmlns:xlink="http://www.w3.org/1999/xlink" viewBox="0 0 974.83 722.67"><defs><style>.cls-1,.cls-10,.cls-13,.cls-18,.cls-19,.cls-21,.cls-3,.cls-7,.cls-9{fill:none;}.cls-2,.cls-20{fill:#8436ff;}.cls-2,.cls-3{stroke:#6e24fc;}.cls-10,.cls-13,.cls-19,.cls-2,.cls-21,.cls-3,.cls-7,.cls-9{stroke-linecap:round;}.cls-13,.cls-2,.cls-3,.cls-7{stroke-linejoin:round;}.cls-13,.cls-2,.cls-3,.cls-7,.cls-9{stroke-width:4px;}.cls-4{fill:#fff;opacity:0.25;}.cls-5{fill:#a7a1f9;}.cls-6{fill:#e0e2ff;}.cls-19,.cls-7{stroke:#8436ff;}.cls-8{clip-path:url(#clip-path);}.cls-9{stroke:#a7a1f9;}.cls-10,.cls-18,.cls-19,.cls-21,.cls-9{stroke-miterlimit:10;}.cls-10{stroke:#fff;stroke-width:2px;}.cls-11{fill:#a4a1ff;}.cls-12{fill:#c8c4ff;}.cls-13{stroke:#6d10ff;}.cls-14{fill:#eedcff;}.cls-15{fill:#d7a6ff;}.cls-16{fill:#6d10ff;}.cls-17{fill:#cabfd8;}.cls-18,.cls-21{stroke:#d9a5ff;}.cls-18,.cls-19,.cls-21{stroke-width:5px;}</style><clipPath id="clip-path" transform="translate(-10.82 -127.67)"><path class="cls-1" d="M571.61,338c-43.36-43.37-97.95-59.09-121.92-35.12l-171.8,171.8,157,157,171.8-171.79C630.7,435.9,615,381.31,571.61,338Z"/></clipPath></defs><g id="wing_L"><g id="wing"><polyline class="cls-2" points="112.26 167.89 496.02 251.92 504.63 281.34 389.9 391.53 12.44 308.88 2 273.22 112.26 167.89 496.02 251.92"/><line class="cls-3" x1="474.3" y1="250.63" x2="339.05" y2="379.83"/><line class="cls-3" x1="432.72" y1="240.22" x2="296.55" y2="370.31"/><line class="cls-3" x1="383.23" y1="230.38" x2="249.22" y2="358.4"/><line class="cls-3" x1="335.03" y1="222.09" x2="201.01" y2="350.11"/><line class="cls-3" x1="289.69" y1="211.29" x2="155.68" y2="339.32"/><line class="cls-3" x1="246.11" y1="201.64" x2="112.09" y2="329.66"/><line class="cls-3" x1="199.87" y1="189.92" x2="65.86" y2="317.94"/><line class="cls-3" x1="153.47" y1="178.13" x2="19.46" y2="306.16"/><line class="cls-3" x1="499.58" y1="283.86" x2="86.2" y2="193.34"/><line class="cls-3" x1="471.79" y1="311.96" x2="57.32" y2="221.21"/><line class="cls-3" x1="445.11" y1="338.2" x2="29.74" y2="247.24"/><line class="cls-3" x1="416.31" y1="364.63" x2="2.22" y2="273.96"/><path class="cls-4" d="M330.2,369.06l-.65,104.74a9.84,9.84,0,0,1-11.95,9.55L257,470.08a9.84,9.84,0,0,1-7.74-9.68l.65-104.73a9.85,9.85,0,0,1,12-9.56l60.6,13.27A9.84,9.84,0,0,1,330.2,369.06Z" transform="translate(-10.82 -127.67)"/><path class="cls-4" d="M211.64,343.1,211,447.84a9.84,9.84,0,0,1-12,9.55l-10.24-2.24a9.84,9.84,0,0,1-7.74-9.68l.65-104.74a9.85,9.85,0,0,1,12-9.55l10.23,2.24A9.83,9.83,0,0,1,211.64,343.1Z" transform="translate(-10.82 -127.67)"/></g></g><g id="body"><path class="cls-5" d="M586.41,323.15c-43.36-43.37-97.95-59.09-121.92-35.11L277.89,474.63l157,157,186.6-186.59C645.5,421.11,629.78,366.52,586.41,323.15Z" transform="translate(-10.82 -127.67)"/><path class="cls-6" d="M571.61,338c-43.36-43.37-97.95-59.09-121.92-35.12l-171.8,171.8,157,157,171.8-171.79C630.7,435.9,615,381.31,571.61,338Z" transform="translate(-10.82 -127.67)"/><path class="cls-7" d="M557.11,360.62c37.18,37.18,54,82.61,43,109.92" transform="translate(-10.82 -127.67)"/><path class="cls-5" d="M277.89,474.63c-12.12,12.18-15.72,88.43-15.72,88.43l73.67,86.69s86.19-5.18,99.09-18.08S290,462.45,277.89,474.63Z" transform="translate(-10.82 -127.67)"/><g class="cls-8"><path class="cls-7" d="M455.06,460.51c37.18,37.18,54,82.62,43,109.93" transform="translate(-10.82 -127.67)"/></g><g class="cls-8"><path class="cls-9" d="M321.78,434.93c27.33-11,72.69,5.89,109.82,43s54,82.61,43,109.92" transform="translate(-10.82 -127.67)"/></g><g class="cls-8"><path class="cls-10" d="M364.38,385.4c27.32-11,72.69,5.89,109.82,43,1.38,1.37,2.72,2.76,4,4.15" transform="translate(-10.82 -127.67)"/></g><g class="cls-8"><path class="cls-10" d="M417.8,333.7c27.33-11,72.69,5.89,109.82,43,1.38,1.37,2.72,2.76,4,4.15" transform="translate(-10.82 -127.67)"/></g></g><g id="head"><circle class="cls-11" cx="229.54" cy="535.78" r="121.94"/><path class="cls-12" d="M181.35,697.48,128.9,712.84A121.93,121.93,0,1,0,281.77,548.77,121.82,121.82,0,0,0,181.35,697.48Z" transform="translate(-10.82 -127.67)"/><path class="cls-13" d="M149.65,587.26a137.94,137.94,0,0,1,47.47,4.9,139.38,139.38,0,0,1,58.59,34.06" transform="translate(-10.82 -127.67)"/><path class="cls-13" d="M275.54,568.87A76.62,76.62,0,0,0,252,575.78a77.8,77.8,0,0,0-29.15,24.42" transform="translate(-10.82 -127.67)"/><path class="cls-13" d="M171.13,642.88c3.15-7.28,6.81-15,11.09-23,5-9.42,10.18-17.92,15.21-25.52" transform="translate(-10.82 -127.67)"/><path class="cls-13" d="M221.24,680.07a127,127,0,0,0-25.67-24.57c-5.72-4.11-11.8-8.52-20.72-12.09A79.56,79.56,0,0,0,141.49,638" transform="translate(-10.82 -127.67)"/><ellipse class="cls-14" cx="127.11" cy="699.54" rx="57.94" ry="69.68" transform="translate(-202.32 -63.74) rotate(-16.32)"/><rect class="cls-14" x="115.32" y="631.55" width="12.03" height="139.36" transform="matrix(0.96, -0.28, 0.28, 0.96, -203.03, -65.29)"/><ellipse class="cls-15" cx="115.57" cy="702.92" rx="57.94" ry="69.68" transform="translate(-203.73 -66.85) rotate(-16.32)"/><ellipse class="cls-16" cx="118.75" cy="701.98" rx="9.95" ry="13.38" transform="matrix(0.96, -0.28, 0.28, 0.96, -203.34, -65.99)"/><rect class="cls-16" x="101.38" y="691.1" width="17.73" height="26.75" transform="matrix(0.96, -0.28, 0.28, 0.96, -204.39, -68.28)"/><ellipse class="cls-14" cx="101.73" cy="706.97" rx="9.95" ry="13.38" transform="translate(-205.43 -70.57) rotate(-16.32)"/><ellipse class="cls-14" cx="286.08" cy="794.35" rx="45.97" ry="55.31" transform="translate(-568.07 707.06) rotate(-72.94)"/><rect class="cls-14" x="279.9" y="743.6" width="9.54" height="110.62" transform="translate(-573.42 708.94) rotate(-72.94)"/><ellipse class="cls-15" cx="283.27" cy="803.47" rx="45.97" ry="55.31" transform="translate(-578.77 710.83) rotate(-72.94)"/><ellipse class="cls-16" cx="285.04" cy="797.71" rx="7.15" ry="9.61" transform="translate(-572.02 708.45) rotate(-72.94)"/><rect class="cls-16" x="276.81" y="794.19" width="12.73" height="19.21" transform="translate(-579.16 710.97) rotate(-72.94)"/><ellipse class="cls-14" cx="281.31" cy="809.88" rx="7.15" ry="9.61" transform="translate(-586.29 713.48) rotate(-72.94)"/><ellipse class="cls-14" cx="187.4" cy="786.89" rx="30.64" ry="34.39" transform="translate(-602.03 439.95) rotate(-60.88)"/><rect class="cls-14" x="182.67" y="755.28" width="6.36" height="68.77" transform="translate(-605.25 440.02) rotate(-60.88)"/><ellipse class="cls-15" cx="184.3" cy="792.44" rx="30.64" ry="34.39" transform="translate(-608.47 440.1) rotate(-60.88)"/><ellipse class="cls-16" cx="184.76" cy="792.29" rx="4.04" ry="5.43" transform="translate(-608.11 440.42) rotate(-60.88)"/><rect class="cls-16" x="179.41" y="790" width="7.2" height="10.87" transform="translate(-611.75 440.51) rotate(-60.88)"/><ellipse class="cls-14" cx="181.26" cy="798.58" rx="4.04" ry="5.43" transform="translate(-615.4 440.59) rotate(-60.88)"/><ellipse class="cls-14" cx="364.09" cy="696.27" rx="47.28" ry="45.61" transform="translate(-429.36 638.22) rotate(-67.48)"/><rect class="cls-17" x="320.11" y="694.06" width="94.57" height="7.14" transform="translate(1141.72 497.82) rotate(112.52)"/><ellipse class="cls-15" cx="370.69" cy="699" rx="47.28" ry="45.61" transform="translate(-427.81 646) rotate(-67.48)"/><ellipse class="cls-16" cx="370.58" cy="698.96" rx="7.8" ry="5.81" transform="translate(-427.84 645.88) rotate(-67.48)"/><rect class="cls-16" x="370.18" y="693.14" width="10.34" height="15.6" transform="translate(442.77 1364.53) rotate(-157.48)"/><ellipse class="cls-14" cx="380.13" cy="702.92" rx="7.8" ry="5.81" transform="translate(-425.6 657.14) rotate(-67.48)"/></g><g id="wing_R"><g id="wing-2" data-name="wing"><polyline class="cls-2" points="580.46 260.89 964.22 344.92 972.83 374.34 858.1 484.53 480.64 401.87 470.2 366.22 580.46 260.89 964.22 344.92"/><line class="cls-3" x1="942.5" y1="343.62" x2="807.25" y2="472.82"/><line class="cls-3" x1="900.92" y1="333.21" x2="764.75" y2="463.3"/><line class="cls-3" x1="851.43" y1="323.37" x2="717.42" y2="451.4"/><line class="cls-3" x1="803.23" y1="315.08" x2="669.21" y2="443.11"/><line class="cls-3" x1="757.89" y1="304.29" x2="623.88" y2="432.31"/><line class="cls-3" x1="714.3" y1="294.64" x2="580.29" y2="422.66"/><line class="cls-3" x1="668.07" y1="282.91" x2="534.06" y2="410.93"/><line class="cls-3" x1="621.67" y1="271.13" x2="487.66" y2="399.15"/><line class="cls-3" x1="967.78" y1="376.85" x2="554.4" y2="286.34"/><line class="cls-3" x1="939.99" y1="404.96" x2="525.52" y2="314.2"/><line class="cls-3" x1="913.31" y1="431.19" x2="497.94" y2="340.24"/><line class="cls-3" x1="884.51" y1="457.63" x2="470.42" y2="366.96"/><path class="cls-4" d="M798.4,462.05l-.65,104.74a9.85,9.85,0,0,1-12,9.56l-60.6-13.27a9.84,9.84,0,0,1-7.74-9.68l.65-104.74a9.84,9.84,0,0,1,11.95-9.55l60.6,13.26A9.85,9.85,0,0,1,798.4,462.05Z" transform="translate(-10.82 -127.67)"/><path class="cls-4" d="M679.84,436.09l-.65,104.74a9.85,9.85,0,0,1-12,9.56L657,548.15a9.85,9.85,0,0,1-7.74-9.68l.65-104.74a9.85,9.85,0,0,1,12-9.56l10.23,2.24A9.84,9.84,0,0,1,679.84,436.09Z" transform="translate(-10.82 -127.67)"/></g></g><g id="antennas"><line class="cls-18" x1="476.97" y1="169.36" x2="462.71" y2="112.19"/><path class="cls-19" d="M474.41,299.29a41.57,41.57,0,0,1,31.09,4.11" transform="translate(-10.82 -127.67)"/><circle class="cls-20" cx="462.71" cy="112.19" r="14.24"/><line class="cls-21" x1="464.72" y1="109.25" x2="487.01" y2="85.1"/><line class="cls-21" x1="549.18" y1="203.79" x2="588.23" y2="156.38"/><ellipse class="cls-20" cx="557.91" cy="329.37" rx="10.23" ry="13.15" transform="translate(-24.86 506.05) rotate(-58.57)"/><circle class="cls-20" cx="589.38" cy="157.53" r="14.24"/><line class="cls-21" x1="596.59" y1="158.58" x2="630.69" y2="174.19"/><ellipse class="cls-14" cx="512.34" cy="187.22" rx="44.79" ry="71.3" transform="translate(6.86 289.45) rotate(-45)"/><ellipse class="cls-14" cx="666.31" cy="308.6" rx="50.55" ry="31.83" transform="translate(105.56 667.53) rotate(-66.35)"/><ellipse class="cls-15" cx="518.17" cy="181.39" rx="36.56" ry="70.08" transform="translate(12.68 291.86) rotate(-45)"/><ellipse class="cls-15" cx="669.14" cy="309.84" rx="50.3" ry="28.74" transform="translate(106.12 670.87) rotate(-66.35)"/><ellipse class="cls-16" cx="517.4" cy="182.16" rx="7.15" ry="9.61" transform="translate(11.91 291.54) rotate(-45)"/><rect class="cls-16" x="515.53" y="168.05" width="12.73" height="19.21" transform="translate(1005.74 -193.42) rotate(135)"/><ellipse class="cls-14" cx="526.4" cy="173.16" rx="7.15" ry="9.61" transform="translate(20.92 295.27) rotate(-45)"/><ellipse class="cls-16" cx="668.76" cy="309.67" rx="6.89" ry="5.13" transform="translate(106.05 670.43) rotate(-66.35)"/><rect class="cls-16" x="668.38" y="304.62" width="9.13" height="13.77" transform="translate(1153.64 739.09) rotate(-156.35)"/><ellipse class="cls-14" cx="677.13" cy="313.34" rx="6.89" ry="5.13" transform="translate(107.7 680.28) rotate(-66.35)"/></g></svg>