<svg xmlns="http://www.w3.org/2000/svg" viewBox="0 0 911 570.54"><defs><style>.cls-1{fill:#ebe1ff;}.cls-2{fill:#9340ff;opacity:0.35;}.cls-3{fill:#fff;}.cls-4{fill:#f49a5d;}.cls-13,.cls-4,.cls-6,.cls-8,.cls-9{fill-rule:evenodd;}.cls-5,.cls-6{fill:#f2bf9c;}.cls-7{fill:#161616;stroke:#666;stroke-width:5.61px;opacity:0.5;}.cls-13,.cls-7{stroke-miterlimit:10;}.cls-8{fill:#ff812c;}.cls-9{fill:#fff13e;}.cls-10{fill:#f0f0fa;}.cls-11{fill:#e6e6e1;}.cls-12{fill:#a0a0aa;}.cls-13{fill:none;stroke:#f0f0fa;stroke-linecap:round;stroke-width:9.35px;}.cls-14,.cls-18{fill:#dac2ff;}.cls-14{opacity:0.15;}.cls-15{fill:#0096ff;}.cls-16{fill:#0f5;}.cls-17{fill:#009a7c;}.cls-18{opacity:0.8;}</style></defs><g id="Stars_Back" data-name="Stars Back"><circle class="cls-1" cx="566.8" cy="546.23" r="24.32"/></g><g id="Space_Dust" data-name="Space Dust"><path class="cls-2" d="M712.47,119.08H396.61a95.53,95.53,0,0,0-95.53,95.53h0a95.53,95.53,0,0,0,95.53,95.53H496A23.88,23.88,0,0,1,519.87,334h0A23.88,23.88,0,0,1,496,357.9H254.86A110.94,110.94,0,0,0,143.92,468.84h0A110.94,110.94,0,0,0,254.86,579.78H637A110.94,110.94,0,0,0,747.91,468.84h0a110.94,110.94,0,0,0-82.13-107.12,26.29,26.29,0,0,1-19.56-25.36h0a26.22,26.22,0,0,1,26.22-26.22h40A95.53,95.53,0,0,0,808,214.61h0A95.53,95.53,0,0,0,712.47,119.08Z" transform="translate(103 -34.23)"/></g><g id="Stars_Front" data-name="Stars Front"><circle class="cls-3" cx="24.32" cy="153.39" r="24.32"/><circle class="cls-1" cx="578.03" cy="37.41" r="24.32"/></g><g id="Rocketship"><path class="cls-4" d="M95.34,451.9a9.1,9.1,0,0,1-2.47,15.57L73.76,474.8l-19.12,7.34a9.09,9.09,0,0,1-12.24-9.92L45.6,452l3.2-20.22a9.11,9.11,0,0,1,14.72-5.65L79.43,439Z" transform="translate(103 -34.23)"/><path class="cls-4" d="M133.41,437.19a9.1,9.1,0,0,1-2.47,15.56l-19.11,7.34-19.11,7.33a9.1,9.1,0,0,1-12.25-9.91l3.2-20.23,3.21-20.22a9.1,9.1,0,0,1,14.71-5.64L117.5,424.3Z" transform="translate(103 -34.23)"/><path class="cls-5" d="M71.69,377.27h0A25.81,25.81,0,0,1,97.5,403.08V448.9a0,0,0,0,1,0,0H45.88a0,0,0,0,1,0,0V403.08A25.81,25.81,0,0,1,71.69,377.27Z" transform="translate(-41.11 19.4) rotate(-21.13)"/><ellipse class="cls-5" cx="63.4" cy="391.62" rx="26.33" ry="51.78" transform="translate(-33.93 14.97) rotate(-21.13)"/><path class="cls-6" d="M106.63,465.65l-25.47,9.84a5.62,5.62,0,0,1-4.28-.09c-12.7-5.6-16.35-19.61-16.35-19.61l48-18.54s6.83,11.8,1.3,25.3A5.65,5.65,0,0,1,106.63,465.65Z" transform="translate(103 -34.23)"/><path class="cls-4" d="M96.4,466.21l-8,3.09a4.52,4.52,0,0,1-5.69-2.86l-13-43.1a5.7,5.7,0,0,1,2.88-7.51h0a5.72,5.72,0,0,1,7.19,3.62l18.88,40.81A4.52,4.52,0,0,1,96.4,466.21Z" transform="translate(103 -34.23)"/><circle class="cls-7" cx="163.38" cy="351.04" r="16.46"/><path class="cls-8" d="M133.23,523.42,121.45,493c0-.05,0-.09-.07-.14-.15-.5-.3-1-.5-1.51l-2.2-5.69a18,18,0,0,0-33.65,13l2.2,5.69c.22.56.47,1.11.73,1.63l12,31a4.81,4.81,0,1,0,9-3.47l-.49-1.28a4.76,4.76,0,0,0,4.17.36,4.81,4.81,0,0,0,3-3.57l2.34,6a4.81,4.81,0,1,0,9-3.47l-1-2.5a4.81,4.81,0,0,0,7.3-5.64Z" transform="translate(103 -34.23)"/><path class="cls-9" d="M122.4,516.67l-9.48-24.51a3.13,3.13,0,0,0-.38-.7l-.92-2.39a10.17,10.17,0,0,0-13.15-5.81h0a10.17,10.17,0,0,0-5.82,13.15l4.44,11.48.16.36,4.7,12.16a3.46,3.46,0,0,0,6.69-1.37l2.66,6.87a3.47,3.47,0,0,0,6.48-2.5l-1.64-4.24a3.37,3.37,0,0,0,6.26-2.5Z" transform="translate(103 -34.23)"/><rect class="cls-10" x="101.73" y="489.04" width="7.04" height="23" rx="3.52" transform="translate(-70.39 37.39) rotate(-21.13)"/></g><g id="Moon"><path class="cls-11" d="M97.63,196.57a12.46,12.46,0,0,1,9.84,4.82,51.42,51.42,0,0,0-28.79-88.14,12.7,12.7,0,0,1-23.29,2.27A51.48,51.48,0,0,0,32,131.81a19.09,19.09,0,0,1-11.35,36.35A51.42,51.42,0,0,0,86,213.7a12.48,12.48,0,0,1,11.6-17.13Zm-45.57,5.88a14,14,0,1,1,14-14A14,14,0,0,1,52.06,202.45Zm14-52.18a22.78,22.78,0,1,1,22.78,22.79A22.78,22.78,0,0,1,66,150.27Z" transform="translate(103 -34.23)"/><path class="cls-12" d="M44,149.54a19.1,19.1,0,0,0-12-17.73,51.2,51.2,0,0,0-11.52,32.43c0,1.32.07,2.62.17,3.92A19.06,19.06,0,0,0,44,149.54Z" transform="translate(103 -34.23)"/><circle class="cls-12" cx="191.81" cy="116.05" r="22.78"/><circle class="cls-12" cx="155.06" cy="154.26" r="13.96"/><path class="cls-12" d="M97.63,196.57A12.48,12.48,0,0,0,86,213.7a51.46,51.46,0,0,0,21.44-12.31A12.46,12.46,0,0,0,97.63,196.57Z" transform="translate(103 -34.23)"/><path class="cls-12" d="M66.55,122.17a12.7,12.7,0,0,0,12.13-8.92,52.28,52.28,0,0,0-6.78-.46,51.22,51.22,0,0,0-16.51,2.73A12.69,12.69,0,0,0,66.55,122.17Z" transform="translate(103 -34.23)"/><path class="cls-13" d="M116.81,400.54A322.14,322.14,0,0,1,76.52,300.41a325.61,325.61,0,0,1-6.77-47.36" transform="translate(103 -34.23)"/></g><g id="Earth"><circle class="cls-14" cx="457.37" cy="264.7" r="264.7"/><circle class="cls-14" cx="459.23" cy="266.56" r="214.33"/><path class="cls-15" d="M308.52,385.8h0a46.88,46.88,0,0,1,46.88-46.87h34.42a55.82,55.82,0,0,1,55.27-48h26.52a15.12,15.12,0,0,0,15.11-15.11h0a15.12,15.12,0,0,0-15.11-15.12H388a48.1,48.1,0,0,1-48.11-48.1h0A48.11,48.11,0,0,1,388,164.48h82a172.67,172.67,0,0,0-217.6,0h19.34a19.3,19.3,0,0,1,19.3,19.3h0a19.29,19.29,0,0,1-19.3,19.29H217.35a171.69,171.69,0,0,0-22.5,49.15h61.68a43.17,43.17,0,0,1,43.17,43.17v1.24a43.17,43.17,0,0,1-43.17,43.17h0A31.56,31.56,0,0,1,225,371.36H204.59A172.72,172.72,0,0,0,470,432.68H355.4A46.88,46.88,0,0,1,308.52,385.8Z" transform="translate(103 -34.23)"/><path class="cls-16" d="M462.57,364.75a6.61,6.61,0,0,0,6.61,6.61h0a13.52,13.52,0,0,1,13.48,13.48h0a13.53,13.53,0,0,1-13.48,13.49H365.06a13.53,13.53,0,0,1-13.49-13.49h0a13.52,13.52,0,0,1,13.49-13.48h73a4.44,4.44,0,0,0,4.44-4.44v-4.33a4.44,4.44,0,0,0-4.44-4.44h0a16.87,16.87,0,0,1-16.83-16.82h0a16.87,16.87,0,0,1,16.83-16.83H532a172.87,172.87,0,0,0-62-160H388a48.11,48.11,0,0,0-48.11,48.11h0A48.1,48.1,0,0,0,388,260.69h83.57a15.12,15.12,0,0,1,15.11,15.12h0a15.12,15.12,0,0,1-15.11,15.11H445.09a55.82,55.82,0,0,0-55.27,48H355.4a46.88,46.88,0,0,0-46.88,46.87h0a46.88,46.88,0,0,0,46.88,46.88H470a173.09,173.09,0,0,0,53.33-74.53H469.18A6.61,6.61,0,0,0,462.57,364.75ZM482.66,217.2a14.17,14.17,0,0,1-14.13,14.13H387.9a14.17,14.17,0,0,1-14.13-14.13h0a14.17,14.17,0,0,1,14.13-14.13h80.63a14.17,14.17,0,0,1,14.13,14.13Z" transform="translate(103 -34.23)"/><path class="cls-16" d="M256.53,339.8h0a43.17,43.17,0,0,0,43.17-43.17v-1.24a43.17,43.17,0,0,0-43.17-43.17H194.85a171.8,171.8,0,0,0-5.79,33h73.11a13.29,13.29,0,0,1,0,26.58H243.92a10.64,10.64,0,0,1,.2,2h0a10.69,10.69,0,0,1-10.66,10.66h-43a172,172,0,0,0,14.11,46.86H225A31.56,31.56,0,0,0,256.53,339.8Z" transform="translate(103 -34.23)"/><path class="cls-16" d="M291.07,183.78h0a19.3,19.3,0,0,0-19.3-19.3H252.43q-5.3,4.31-10.22,9h8.63a10.32,10.32,0,0,1,10.3,10.3h0a10.32,10.32,0,0,1-10.3,10.29h-23.2a10,10,0,0,1-3.42-.6c-2.39,3.12-4.69,6.32-6.87,9.6h54.42A19.29,19.29,0,0,0,291.07,183.78Z" transform="translate(103 -34.23)"/><rect class="cls-17" x="476.77" y="168.85" width="108.89" height="28.26" rx="14.13"/><path class="cls-17" d="M438.05,324.5a16.87,16.87,0,0,0-16.83,16.83h0a16.87,16.87,0,0,0,16.83,16.82h0a4.44,4.44,0,0,1,4.44,4.44v4.33a4.44,4.44,0,0,1-4.44,4.44h-73a13.52,13.52,0,0,0-13.49,13.48h0a13.53,13.53,0,0,0,13.49,13.49H469.18a13.53,13.53,0,0,0,13.48-13.49h0a13.52,13.52,0,0,0-13.48-13.48h0a6.61,6.61,0,1,1,0-13.21h54.18A170.74,170.74,0,0,0,532,324.5Z" transform="translate(103 -34.23)"/><path class="cls-17" d="M244.12,313.84h0a10.64,10.64,0,0,0-.2-2h18.25a13.29,13.29,0,0,0,0-26.58H189.06q-.51,6.61-.52,13.36a174.36,174.36,0,0,0,1.94,25.92h43A10.69,10.69,0,0,0,244.12,313.84Z" transform="translate(103 -34.23)"/><path class="cls-17" d="M250.84,194.07a10.32,10.32,0,0,0,10.3-10.29h0a10.32,10.32,0,0,0-10.3-10.3h-8.63a174.92,174.92,0,0,0-18,20,10,10,0,0,0,3.42.6Z" transform="translate(103 -34.23)"/><rect class="cls-18" x="263.29" y="161.81" width="148.23" height="42.33" rx="21.16"/><path class="cls-18" d="M261.14,355.94h0a10.47,10.47,0,0,1,10.47-10.47h7.3a12.17,12.17,0,0,0,12.16-12.16h0a12.17,12.17,0,0,0-12.16-12.16H180.84a12.17,12.17,0,0,0-12.16,12.16h0a12.17,12.17,0,0,0,12.16,12.16h45a10.47,10.47,0,0,1,10.47,10.47h0a10.47,10.47,0,0,1-10.47,10.47H208.63a20.09,20.09,0,0,0-20.09,20.09h0a20.09,20.09,0,0,0,20.09,20.09h90.08A20.09,20.09,0,0,0,318.8,386.5h0a20.09,20.09,0,0,0-20.09-20.09h-27.1A10.47,10.47,0,0,1,261.14,355.94Z" transform="translate(103 -34.23)"/><rect class="cls-18" x="471.49" y="407.44" width="106.78" height="23.26" rx="11.63"/><path class="cls-18" d="M496.24,327.68h0a9.46,9.46,0,0,1,9.46-9.46H507a18,18,0,0,0,18-18h0a18,18,0,0,0-18-18H422.4a18,18,0,0,0-18,18h0a18,18,0,0,0,18,18h47.29a9.45,9.45,0,0,1,9.46,9.46h0a9.46,9.46,0,0,1-9.46,9.47H391.22a22.72,22.72,0,0,0-22.73,22.73h0a22.72,22.72,0,0,0,22.73,22.72H532.88a22.72,22.72,0,0,0,22.72-22.72h0a22.72,22.72,0,0,0-22.72-22.73H505.7A9.47,9.47,0,0,1,496.24,327.68Z" transform="translate(103 -34.23)"/><path class="cls-18" d="M482.66,176.34h0a7.43,7.43,0,0,1,7.43-7.43h9a11.1,11.1,0,0,0,11.1-11.09h0a11.1,11.1,0,0,0-11.1-11.1H394.38a11.09,11.09,0,0,0-11.09,11.1h0a11.09,11.09,0,0,0,11.09,11.09H453a7.43,7.43,0,0,1,7.43,7.43h0a7.44,7.44,0,0,1-7.43,7.44h-1.58A14.25,14.25,0,0,0,437.2,198h0a14.24,14.24,0,0,0,14.25,14.24h80.4A14.24,14.24,0,0,0,546.09,198h0a14.25,14.25,0,0,0-14.24-14.24H490.09A7.44,7.44,0,0,1,482.66,176.34Z" transform="translate(103 -34.23)"/></g></svg>